<svg width="38" height="44" viewBox="0 0 38 44" fill="none" xmlns="http://www.w3.org/2000/svg">
<path d="M19.6105 30.2499C19.2751 29.7399 19.1074 29.4849 18.9048 29.3926C18.7272 29.3116 18.5315 29.3116 18.3539 29.3926C18.1513 29.4849 17.9836 29.7399 17.6483 30.2499L13.9803 35.828C13.4575 36.623 13.1961 37.0206 13.1958 37.3551C13.1955 37.646 13.3043 37.9213 13.4912 38.1028C13.7061 38.3115 14.1245 38.3115 14.9614 38.3115H22.2974C23.1342 38.3115 23.5526 38.3115 23.7676 38.1028C23.9545 37.9213 24.0632 37.646 24.0629 37.3551C24.0626 37.0206 23.8012 36.623 23.2785 35.828L19.6105 30.2499Z" stroke="#777C88" stroke-width="3" stroke-linecap="round" stroke-linejoin="round"/>
<path d="M27.0125 32.9237H27.9439C30.5161 32.9237 32.6013 30.5115 32.6013 27.5359V11.3725C32.6013 8.39694 30.5161 5.98474 27.9439 5.98474H9.31457C6.74239 5.98474 4.65723 8.39694 4.65723 11.3725V27.5359C4.65723 30.5115 6.74239 32.9237 9.31457 32.9237H10.246" stroke="#777C88" stroke-width="3" stroke-linecap="round" stroke-linejoin="round"/>
</svg>
