<svg width="23" height="24" viewBox="0 0 23 24" fill="none" xmlns="http://www.w3.org/2000/svg">
<path fill-rule="evenodd" clip-rule="evenodd" d="M7.75353 0.231445H15.9978C19.7915 0.231445 22.868 3.43201 22.868 7.37876V15.9555C22.868 19.9023 19.7915 23.1028 15.9978 23.1028H7.75353C3.95979 23.1028 0.883301 19.9023 0.883301 15.9555V7.37876C0.883301 3.43201 3.95979 0.231445 7.75353 0.231445ZM15.9978 20.9585C18.6497 20.9585 20.807 18.7143 20.807 15.9554V7.37864C20.807 4.61978 18.6497 2.37552 15.9978 2.37552H7.75353C5.10162 2.37552 2.94437 4.61978 2.94437 7.37864V15.9554C2.94437 18.7143 5.10162 20.9585 7.75353 20.9585H15.9978Z" fill="black"/>
<path fill-rule="evenodd" clip-rule="evenodd" d="M6.37988 11.6671C6.37988 8.50939 8.8408 5.94922 11.8761 5.94922C14.9113 5.94922 17.3722 8.50939 17.3722 11.6671C17.3722 14.8248 14.9113 17.3849 11.8761 17.3849C8.8408 17.3849 6.37988 14.8248 6.37988 11.6671ZM8.44076 11.667C8.44076 13.6368 9.98243 15.2406 11.8759 15.2406C13.7693 15.2406 15.311 13.6368 15.311 11.667C15.311 9.69572 13.7693 8.0933 11.8759 8.0933C9.98243 8.0933 8.44076 9.69572 8.44076 11.667Z" fill="black"/>
<ellipse cx="17.7844" cy="5.5202" rx="0.732366" ry="0.761904" fill="black"/>
</svg>
