<svg width="482" height="544" viewBox="0 0 482 544" fill="none" xmlns="http://www.w3.org/2000/svg">
<path d="M0 311.303L59.3207 173.238L144.89 311.303L75.0696 429.419L0 311.303Z" fill="#6499E9"/>
<path d="M144.89 303.953H294.504L222.059 429.419H72.4448L144.89 303.953Z" fill="#BEFFF7"/>
<path d="M56.6959 167.463L220.191 191.013L294.504 311.303H144.89L56.6959 167.463Z" fill="#8BD8FF"/>
<path d="M227.309 125.991H372.723L287.679 250.407L154.864 235.708L227.309 125.991Z" fill="#BEFFF7"/>
<path d="M83.994 113.392L155.389 0L232.033 128.091L155.389 240.958L83.994 113.392Z" fill="#6499E9"/>
<path d="M150.139 1.52588e-05H297.476L372.723 134.39H229.933L150.139 1.52588e-05Z" fill="#8BD8FF"/>
<path d="M331.251 293.454H478.519L407.374 439.393H267.206L331.251 293.454Z" fill="#A6F6FF"/>
<path d="M202.635 305.003L267.206 184.787L332.826 287.679L267.206 439.393L202.635 305.003Z" fill="#6499E9"/>
<path d="M264.056 186.362H409.47L481.39 292.404H332.826L264.056 186.362Z" fill="#8BD8FF"/>
<mask id="path-10-outside-1_1074_3387" maskUnits="userSpaceOnUse" x="20" y="488" width="443" height="57" fill="black">
<rect fill="white" x="20" y="488" width="443" height="57"/>
<path d="M81.3385 490.35V543H68.5135V511.425L56.7385 543H46.3885L34.5385 511.35V543H21.7135V490.35H36.8635L51.6385 526.8L66.2635 490.35H81.3385ZM103.386 500.625V511.275H120.561V521.175H103.386V532.725H122.811V543H90.5611V490.35H122.811V500.625H103.386ZM150.862 490.35C156.412 490.35 161.262 491.45 165.412 493.65C169.562 495.85 172.762 498.95 175.012 502.95C177.312 506.9 178.462 511.475 178.462 516.675C178.462 521.825 177.312 526.4 175.012 530.4C172.762 534.4 169.537 537.5 165.337 539.7C161.187 541.9 156.362 543 150.862 543H131.137V490.35H150.862ZM150.037 531.9C154.887 531.9 158.662 530.575 161.362 527.925C164.062 525.275 165.412 521.525 165.412 516.675C165.412 511.825 164.062 508.05 161.362 505.35C158.662 502.65 154.887 501.3 150.037 501.3H143.962V531.9H150.037ZM198.454 490.35V543H185.629V490.35H198.454ZM226.799 543.525C222.949 543.525 219.499 542.9 216.449 541.65C213.399 540.4 210.949 538.55 209.099 536.1C207.299 533.65 206.349 530.7 206.249 527.25H219.899C220.099 529.2 220.774 530.7 221.924 531.75C223.074 532.75 224.574 533.25 226.424 533.25C228.324 533.25 229.824 532.825 230.924 531.975C232.024 531.075 232.574 529.85 232.574 528.3C232.574 527 232.124 525.925 231.224 525.075C230.374 524.225 229.299 523.525 227.999 522.975C226.749 522.425 224.949 521.8 222.599 521.1C219.199 520.05 216.424 519 214.274 517.95C212.124 516.9 210.274 515.35 208.724 513.3C207.174 511.25 206.399 508.575 206.399 505.275C206.399 500.375 208.174 496.55 211.724 493.8C215.274 491 219.899 489.6 225.599 489.6C231.399 489.6 236.074 491 239.624 493.8C243.174 496.55 245.074 500.4 245.324 505.35H231.449C231.349 503.65 230.724 502.325 229.574 501.375C228.424 500.375 226.949 499.875 225.149 499.875C223.599 499.875 222.349 500.3 221.399 501.15C220.449 501.95 219.974 503.125 219.974 504.675C219.974 506.375 220.774 507.7 222.374 508.65C223.974 509.6 226.474 510.625 229.874 511.725C233.274 512.875 236.024 513.975 238.124 515.025C240.274 516.075 242.124 517.6 243.674 519.6C245.224 521.6 245.999 524.175 245.999 527.325C245.999 530.325 245.224 533.05 243.674 535.5C242.174 537.95 239.974 539.9 237.074 541.35C234.174 542.8 230.749 543.525 226.799 543.525ZM291.766 490.35V500.625H277.816V543H264.991V500.625H251.041V490.35H291.766ZM323.103 543.525C318.153 543.525 313.603 542.375 309.453 540.075C305.353 537.775 302.078 534.575 299.628 530.475C297.228 526.325 296.028 521.675 296.028 516.525C296.028 511.375 297.228 506.75 299.628 502.65C302.078 498.55 305.353 495.35 309.453 493.05C313.603 490.75 318.153 489.6 323.103 489.6C328.053 489.6 332.578 490.75 336.678 493.05C340.828 495.35 344.078 498.55 346.428 502.65C348.828 506.75 350.028 511.375 350.028 516.525C350.028 521.675 348.828 526.325 346.428 530.475C344.028 534.575 340.778 537.775 336.678 540.075C332.578 542.375 328.053 543.525 323.103 543.525ZM323.103 531.825C327.303 531.825 330.653 530.425 333.153 527.625C335.703 524.825 336.978 521.125 336.978 516.525C336.978 511.875 335.703 508.175 333.153 505.425C330.653 502.625 327.303 501.225 323.103 501.225C318.853 501.225 315.453 502.6 312.903 505.35C310.403 508.1 309.153 511.825 309.153 516.525C309.153 521.175 310.403 524.9 312.903 527.7C315.453 530.45 318.853 531.825 323.103 531.825ZM354.988 516.6C354.988 511.4 356.113 506.775 358.363 502.725C360.613 498.625 363.738 495.45 367.738 493.2C371.788 490.9 376.363 489.75 381.463 489.75C387.713 489.75 393.063 491.4 397.513 494.7C401.963 498 404.938 502.5 406.438 508.2H392.338C391.288 506 389.788 504.325 387.838 503.175C385.938 502.025 383.763 501.45 381.313 501.45C377.363 501.45 374.163 502.825 371.713 505.575C369.263 508.325 368.038 512 368.038 516.6C368.038 521.2 369.263 524.875 371.713 527.625C374.163 530.375 377.363 531.75 381.313 531.75C383.763 531.75 385.938 531.175 387.838 530.025C389.788 528.875 391.288 527.2 392.338 525H406.438C404.938 530.7 401.963 535.2 397.513 538.5C393.063 541.75 387.713 543.375 381.463 543.375C376.363 543.375 371.788 542.25 367.738 540C363.738 537.7 360.613 534.525 358.363 530.475C356.113 526.425 354.988 521.8 354.988 516.6ZM444.817 543L427.117 519.75V543H414.292V490.35H427.117V513.45L444.667 490.35H459.742L439.342 516.15L460.492 543H444.817Z"/>
</mask>
<path d="M81.3385 490.35V543H68.5135V511.425L56.7385 543H46.3885L34.5385 511.35V543H21.7135V490.35H36.8635L51.6385 526.8L66.2635 490.35H81.3385ZM103.386 500.625V511.275H120.561V521.175H103.386V532.725H122.811V543H90.5611V490.35H122.811V500.625H103.386ZM150.862 490.35C156.412 490.35 161.262 491.45 165.412 493.65C169.562 495.85 172.762 498.95 175.012 502.95C177.312 506.9 178.462 511.475 178.462 516.675C178.462 521.825 177.312 526.4 175.012 530.4C172.762 534.4 169.537 537.5 165.337 539.7C161.187 541.9 156.362 543 150.862 543H131.137V490.35H150.862ZM150.037 531.9C154.887 531.9 158.662 530.575 161.362 527.925C164.062 525.275 165.412 521.525 165.412 516.675C165.412 511.825 164.062 508.05 161.362 505.35C158.662 502.65 154.887 501.3 150.037 501.3H143.962V531.9H150.037ZM198.454 490.35V543H185.629V490.35H198.454ZM226.799 543.525C222.949 543.525 219.499 542.9 216.449 541.65C213.399 540.4 210.949 538.55 209.099 536.1C207.299 533.65 206.349 530.7 206.249 527.25H219.899C220.099 529.2 220.774 530.7 221.924 531.75C223.074 532.75 224.574 533.25 226.424 533.25C228.324 533.25 229.824 532.825 230.924 531.975C232.024 531.075 232.574 529.85 232.574 528.3C232.574 527 232.124 525.925 231.224 525.075C230.374 524.225 229.299 523.525 227.999 522.975C226.749 522.425 224.949 521.8 222.599 521.1C219.199 520.05 216.424 519 214.274 517.95C212.124 516.9 210.274 515.35 208.724 513.3C207.174 511.25 206.399 508.575 206.399 505.275C206.399 500.375 208.174 496.55 211.724 493.8C215.274 491 219.899 489.6 225.599 489.6C231.399 489.6 236.074 491 239.624 493.8C243.174 496.55 245.074 500.4 245.324 505.35H231.449C231.349 503.65 230.724 502.325 229.574 501.375C228.424 500.375 226.949 499.875 225.149 499.875C223.599 499.875 222.349 500.3 221.399 501.15C220.449 501.95 219.974 503.125 219.974 504.675C219.974 506.375 220.774 507.7 222.374 508.65C223.974 509.6 226.474 510.625 229.874 511.725C233.274 512.875 236.024 513.975 238.124 515.025C240.274 516.075 242.124 517.6 243.674 519.6C245.224 521.6 245.999 524.175 245.999 527.325C245.999 530.325 245.224 533.05 243.674 535.5C242.174 537.95 239.974 539.9 237.074 541.35C234.174 542.8 230.749 543.525 226.799 543.525ZM291.766 490.35V500.625H277.816V543H264.991V500.625H251.041V490.35H291.766ZM323.103 543.525C318.153 543.525 313.603 542.375 309.453 540.075C305.353 537.775 302.078 534.575 299.628 530.475C297.228 526.325 296.028 521.675 296.028 516.525C296.028 511.375 297.228 506.75 299.628 502.65C302.078 498.55 305.353 495.35 309.453 493.05C313.603 490.75 318.153 489.6 323.103 489.6C328.053 489.6 332.578 490.75 336.678 493.05C340.828 495.35 344.078 498.55 346.428 502.65C348.828 506.75 350.028 511.375 350.028 516.525C350.028 521.675 348.828 526.325 346.428 530.475C344.028 534.575 340.778 537.775 336.678 540.075C332.578 542.375 328.053 543.525 323.103 543.525ZM323.103 531.825C327.303 531.825 330.653 530.425 333.153 527.625C335.703 524.825 336.978 521.125 336.978 516.525C336.978 511.875 335.703 508.175 333.153 505.425C330.653 502.625 327.303 501.225 323.103 501.225C318.853 501.225 315.453 502.6 312.903 505.35C310.403 508.1 309.153 511.825 309.153 516.525C309.153 521.175 310.403 524.9 312.903 527.7C315.453 530.45 318.853 531.825 323.103 531.825ZM354.988 516.6C354.988 511.4 356.113 506.775 358.363 502.725C360.613 498.625 363.738 495.45 367.738 493.2C371.788 490.9 376.363 489.75 381.463 489.75C387.713 489.75 393.063 491.4 397.513 494.7C401.963 498 404.938 502.5 406.438 508.2H392.338C391.288 506 389.788 504.325 387.838 503.175C385.938 502.025 383.763 501.45 381.313 501.45C377.363 501.45 374.163 502.825 371.713 505.575C369.263 508.325 368.038 512 368.038 516.6C368.038 521.2 369.263 524.875 371.713 527.625C374.163 530.375 377.363 531.75 381.313 531.75C383.763 531.75 385.938 531.175 387.838 530.025C389.788 528.875 391.288 527.2 392.338 525H406.438C404.938 530.7 401.963 535.2 397.513 538.5C393.063 541.75 387.713 543.375 381.463 543.375C376.363 543.375 371.788 542.25 367.738 540C363.738 537.7 360.613 534.525 358.363 530.475C356.113 526.425 354.988 521.8 354.988 516.6ZM444.817 543L427.117 519.75V543H414.292V490.35H427.117V513.45L444.667 490.35H459.742L439.342 516.15L460.492 543H444.817Z" fill="black"/>
<path d="M81.3385 490.35H82.3385V489.35H81.3385V490.35ZM81.3385 543V544H82.3385V543H81.3385ZM68.5135 543H67.5135V544H68.5135V543ZM68.5135 511.425H69.5135L67.5765 511.076L68.5135 511.425ZM56.7385 543V544H57.4328L57.6754 543.349L56.7385 543ZM46.3885 543L45.452 543.351L45.6951 544H46.3885V543ZM34.5385 511.35L35.475 510.999L33.5385 511.35H34.5385ZM34.5385 543V544H35.5385V543H34.5385ZM21.7135 543H20.7135V544H21.7135V543ZM21.7135 490.35V489.35H20.7135V490.35H21.7135ZM36.8635 490.35L37.7902 489.974L37.5372 489.35H36.8635V490.35ZM51.6385 526.8L50.7117 527.176L51.6432 529.474L52.5666 527.172L51.6385 526.8ZM66.2635 490.35V489.35H65.5872L65.3354 489.978L66.2635 490.35ZM80.3385 490.35V543H82.3385V490.35H80.3385ZM81.3385 542H68.5135V544H81.3385V542ZM69.5135 543V511.425H67.5135V543H69.5135ZM67.5765 511.076L55.8015 542.651L57.6754 543.349L69.4504 511.774L67.5765 511.076ZM56.7385 542H46.3885V544H56.7385V542ZM47.325 542.649L35.475 510.999L33.602 511.701L45.452 543.351L47.325 542.649ZM33.5385 511.35V543H35.5385V511.35H33.5385ZM34.5385 542H21.7135V544H34.5385V542ZM22.7135 543V490.35H20.7135V543H22.7135ZM21.7135 491.35H36.8635V489.35H21.7135V491.35ZM35.9367 490.726L50.7117 527.176L52.5652 526.424L37.7902 489.974L35.9367 490.726ZM52.5666 527.172L67.1916 490.722L65.3354 489.978L50.7104 526.428L52.5666 527.172ZM66.2635 491.35H81.3385V489.35H66.2635V491.35ZM103.386 500.625V499.625H102.386V500.625H103.386ZM103.386 511.275H102.386V512.275H103.386V511.275ZM120.561 511.275H121.561V510.275H120.561V511.275ZM120.561 521.175V522.175H121.561V521.175H120.561ZM103.386 521.175V520.175H102.386V521.175H103.386ZM103.386 532.725H102.386V533.725H103.386V532.725ZM122.811 532.725H123.811V531.725H122.811V532.725ZM122.811 543V544H123.811V543H122.811ZM90.5611 543H89.5611V544H90.5611V543ZM90.5611 490.35V489.35H89.5611V490.35H90.5611ZM122.811 490.35H123.811V489.35H122.811V490.35ZM122.811 500.625V501.625H123.811V500.625H122.811ZM102.386 500.625V511.275H104.386V500.625H102.386ZM103.386 512.275H120.561V510.275H103.386V512.275ZM119.561 511.275V521.175H121.561V511.275H119.561ZM120.561 520.175H103.386V522.175H120.561V520.175ZM102.386 521.175V532.725H104.386V521.175H102.386ZM103.386 533.725H122.811V531.725H103.386V533.725ZM121.811 532.725V543H123.811V532.725H121.811ZM122.811 542H90.5611V544H122.811V542ZM91.5611 543V490.35H89.5611V543H91.5611ZM90.5611 491.35H122.811V489.35H90.5611V491.35ZM121.811 490.35V500.625H123.811V490.35H121.811ZM122.811 499.625H103.386V501.625H122.811V499.625ZM165.412 493.65L165.881 492.766L165.881 492.766L165.412 493.65ZM175.012 502.95L174.141 503.44L174.144 503.447L174.148 503.453L175.012 502.95ZM175.012 530.4L174.145 529.902L174.141 529.91L175.012 530.4ZM165.337 539.7L164.873 538.814L164.869 538.816L165.337 539.7ZM131.137 543H130.137V544H131.137V543ZM131.137 490.35V489.35H130.137V490.35H131.137ZM143.962 501.3V500.3H142.962V501.3H143.962ZM143.962 531.9H142.962V532.9H143.962V531.9ZM150.862 491.35C156.279 491.35 160.962 492.423 164.944 494.534L165.881 492.766C161.562 490.477 156.546 489.35 150.862 489.35V491.35ZM164.944 494.534C168.929 496.646 171.987 499.611 174.141 503.44L175.884 502.46C173.538 498.289 170.196 495.054 165.881 492.766L164.944 494.534ZM174.148 503.453C176.347 507.23 177.462 511.627 177.462 516.675H179.462C179.462 511.323 178.277 506.57 175.876 502.447L174.148 503.453ZM177.462 516.675C177.462 521.671 176.348 526.07 174.145 529.902L175.879 530.898C178.276 526.73 179.462 521.979 179.462 516.675H177.462ZM174.141 529.91C171.989 533.735 168.908 536.701 164.873 538.814L165.801 540.586C170.167 538.299 173.536 535.065 175.884 530.89L174.141 529.91ZM164.869 538.816C160.886 540.928 156.227 542 150.862 542V544C156.498 544 161.489 542.872 165.806 540.584L164.869 538.816ZM150.862 542H131.137V544H150.862V542ZM132.137 543V490.35H130.137V543H132.137ZM131.137 491.35H150.862V489.35H131.137V491.35ZM150.037 532.9C155.072 532.9 159.127 531.52 162.063 528.639L160.662 527.211C158.197 529.63 154.702 530.9 150.037 530.9V532.9ZM162.063 528.639C165.005 525.751 166.412 521.714 166.412 516.675H164.412C164.412 521.336 163.12 524.799 160.662 527.211L162.063 528.639ZM166.412 516.675C166.412 511.635 165.004 507.578 162.069 504.643L160.655 506.057C163.12 508.522 164.412 512.015 164.412 516.675H166.412ZM162.069 504.643C159.135 501.708 155.077 500.3 150.037 500.3V502.3C154.697 502.3 158.19 503.592 160.655 506.057L162.069 504.643ZM150.037 500.3H143.962V502.3H150.037V500.3ZM142.962 501.3V531.9H144.962V501.3H142.962ZM143.962 532.9H150.037V530.9H143.962V532.9ZM198.454 490.35H199.454V489.35H198.454V490.35ZM198.454 543V544H199.454V543H198.454ZM185.629 543H184.629V544H185.629V543ZM185.629 490.35V489.35H184.629V490.35H185.629ZM197.454 490.35V543H199.454V490.35H197.454ZM198.454 542H185.629V544H198.454V542ZM186.629 543V490.35H184.629V543H186.629ZM185.629 491.35H198.454V489.35H185.629V491.35ZM216.449 541.65L216.069 542.575L216.069 542.575L216.449 541.65ZM209.099 536.1L208.293 536.692L208.301 536.703L209.099 536.1ZM206.249 527.25V526.25H205.219L205.249 527.279L206.249 527.25ZM219.899 527.25L220.893 527.148L220.801 526.25H219.899V527.25ZM221.924 531.75L221.249 532.488L221.258 532.497L221.267 532.505L221.924 531.75ZM230.924 531.975L231.535 532.766L231.546 532.758L231.557 532.749L230.924 531.975ZM231.224 525.075L230.517 525.782L230.527 525.792L230.537 525.802L231.224 525.075ZM227.999 522.975L227.596 523.89L227.602 523.893L227.609 523.896L227.999 522.975ZM222.599 521.1L222.304 522.056L222.313 522.058L222.599 521.1ZM208.724 513.3L209.521 512.697L209.521 512.697L208.724 513.3ZM211.724 493.8L212.336 494.591L212.343 494.585L211.724 493.8ZM239.624 493.8L239.004 494.585L239.011 494.591L239.624 493.8ZM245.324 505.35V506.35H246.375L246.322 505.3L245.324 505.35ZM231.449 505.35L230.45 505.409L230.506 506.35H231.449V505.35ZM229.574 501.375L228.917 502.13L228.927 502.138L228.937 502.146L229.574 501.375ZM221.399 501.15L222.043 501.915L222.054 501.905L222.065 501.895L221.399 501.15ZM222.374 508.65L222.884 507.79L222.884 507.79L222.374 508.65ZM229.874 511.725L230.194 510.778L230.181 510.774L229.874 511.725ZM238.124 515.025L237.676 515.919L237.685 515.924L238.124 515.025ZM243.674 519.6L242.883 520.213L242.883 520.213L243.674 519.6ZM243.674 535.5L242.829 534.965L242.825 534.972L242.821 534.978L243.674 535.5ZM237.074 541.35L236.626 540.456L236.626 540.456L237.074 541.35ZM226.799 542.525C223.057 542.525 219.739 541.918 216.828 540.725L216.069 542.575C219.258 543.882 222.84 544.525 226.799 544.525V542.525ZM216.828 540.725C213.931 539.538 211.631 537.794 209.897 535.497L208.301 536.703C210.267 539.306 212.866 541.262 216.069 542.575L216.828 540.725ZM209.905 535.508C208.241 533.243 207.343 530.496 207.248 527.221L205.249 527.279C205.354 530.904 206.357 534.057 208.293 536.692L209.905 535.508ZM206.249 528.25H219.899V526.25H206.249V528.25ZM218.904 527.352C219.122 529.481 219.875 531.233 221.249 532.488L222.598 531.012C221.673 530.167 221.075 528.919 220.893 527.148L218.904 527.352ZM221.267 532.505C222.636 533.695 224.386 534.25 226.424 534.25V532.25C224.761 532.25 223.511 531.805 222.58 530.995L221.267 532.505ZM226.424 534.25C228.465 534.25 230.206 533.794 231.535 532.766L230.312 531.184C229.442 531.856 228.183 532.25 226.424 532.25V534.25ZM231.557 532.749C232.912 531.64 233.574 530.119 233.574 528.3H231.574C231.574 529.581 231.135 530.51 230.29 531.201L231.557 532.749ZM233.574 528.3C233.574 526.74 233.021 525.397 231.91 524.348L230.537 525.802C231.226 526.453 231.574 527.26 231.574 528.3H233.574ZM231.931 524.368C230.975 523.412 229.787 522.646 228.388 522.054L227.609 523.896C228.811 524.404 229.772 525.038 230.517 525.782L231.931 524.368ZM228.401 522.06C227.095 521.485 225.248 520.846 222.884 520.142L222.313 522.058C224.649 522.754 226.403 523.365 227.596 523.89L228.401 522.06ZM222.894 520.145C219.522 519.103 216.8 518.071 214.712 517.051L213.835 518.849C216.048 519.929 218.876 520.997 222.304 522.055L222.894 520.145ZM214.712 517.051C212.714 516.075 210.984 514.631 209.521 512.697L207.926 513.903C209.564 516.069 211.533 517.725 213.835 518.849L214.712 517.051ZM209.521 512.697C208.136 510.864 207.399 508.42 207.399 505.275H205.399C205.399 508.73 206.212 511.636 207.926 513.903L209.521 512.697ZM207.399 505.275C207.399 500.652 209.055 497.132 212.336 494.591L211.111 493.009C207.292 495.968 205.399 500.098 205.399 505.275H207.399ZM212.343 494.585C215.675 491.957 220.064 490.6 225.599 490.6V488.6C219.734 488.6 214.873 490.043 211.104 493.015L212.343 494.585ZM225.599 490.6C231.238 490.6 235.675 491.96 239.004 494.585L240.243 493.015C236.472 490.04 231.559 488.6 225.599 488.6V490.6ZM239.011 494.591C242.305 497.142 244.088 500.708 244.325 505.4L246.322 505.3C246.059 500.092 244.042 495.958 240.236 493.009L239.011 494.591ZM245.324 504.35H231.449V506.35H245.324V504.35ZM232.447 505.291C232.333 503.357 231.606 501.757 230.211 500.604L228.937 502.146C229.841 502.893 230.364 503.943 230.45 505.409L232.447 505.291ZM230.23 500.62C228.866 499.434 227.144 498.875 225.149 498.875V500.875C226.753 500.875 227.981 501.316 228.917 502.13L230.23 500.62ZM225.149 498.875C223.408 498.875 221.903 499.357 220.732 500.405L222.065 501.895C222.794 501.243 223.789 500.875 225.149 500.875V498.875ZM220.754 500.385C219.524 501.421 218.974 502.91 218.974 504.675H220.974C220.974 503.34 221.373 502.479 222.043 501.915L220.754 500.385ZM218.974 504.675C218.974 506.766 219.994 508.4 221.863 509.51L222.884 507.79C221.553 507 220.974 505.984 220.974 504.675H218.974ZM221.863 509.51C223.561 510.518 226.147 511.57 229.566 512.676L230.181 510.774C226.8 509.68 224.386 508.682 222.884 507.79L221.863 509.51ZM229.553 512.672C232.93 513.814 235.633 514.898 237.676 515.919L238.571 514.131C236.414 513.052 233.617 511.936 230.194 510.778L229.553 512.672ZM237.685 515.924C239.689 516.903 241.421 518.326 242.883 520.213L244.464 518.987C242.826 516.874 240.858 515.247 238.562 514.126L237.685 515.924ZM242.883 520.213C244.267 521.998 244.999 524.341 244.999 527.325H246.999C246.999 524.009 246.18 521.202 244.464 518.987L242.883 520.213ZM244.999 527.325C244.999 530.143 244.274 532.681 242.829 534.965L244.519 536.035C246.174 533.419 246.999 530.507 246.999 527.325H244.999ZM242.821 534.978C241.431 537.248 239.381 539.078 236.626 540.456L237.521 542.244C240.566 540.722 242.917 538.652 244.526 536.022L242.821 534.978ZM236.626 540.456C233.892 541.823 230.627 542.525 226.799 542.525V544.525C230.87 544.525 234.455 543.777 237.521 542.244L236.626 540.456ZM291.766 490.35H292.766V489.35H291.766V490.35ZM291.766 500.625V501.625H292.766V500.625H291.766ZM277.816 500.625V499.625H276.816V500.625H277.816ZM277.816 543V544H278.816V543H277.816ZM264.991 543H263.991V544H264.991V543ZM264.991 500.625H265.991V499.625H264.991V500.625ZM251.041 500.625H250.041V501.625H251.041V500.625ZM251.041 490.35V489.35H250.041V490.35H251.041ZM290.766 490.35V500.625H292.766V490.35H290.766ZM291.766 499.625H277.816V501.625H291.766V499.625ZM276.816 500.625V543H278.816V500.625H276.816ZM277.816 542H264.991V544H277.816V542ZM265.991 543V500.625H263.991V543H265.991ZM264.991 499.625H251.041V501.625H264.991V499.625ZM252.041 500.625V490.35H250.041V500.625H252.041ZM251.041 491.35H291.766V489.35H251.041V491.35ZM309.453 540.075L308.963 540.947L308.968 540.95L309.453 540.075ZM299.628 530.475L298.762 530.976L298.766 530.982L298.769 530.988L299.628 530.475ZM299.628 502.65L298.769 502.137L298.765 502.145L299.628 502.65ZM309.453 493.05L308.968 492.175L308.963 492.178L309.453 493.05ZM336.678 493.05L336.188 493.922L336.193 493.925L336.678 493.05ZM346.428 502.65L345.56 503.147L345.565 503.155L346.428 502.65ZM346.428 530.475L347.291 530.98L347.293 530.976L346.428 530.475ZM336.678 540.075L337.167 540.947L337.167 540.947L336.678 540.075ZM333.153 527.625L332.413 526.952L332.407 526.959L333.153 527.625ZM333.153 505.425L332.407 506.091L332.413 506.098L332.419 506.105L333.153 505.425ZM312.903 505.35L312.169 504.67L312.163 504.677L312.903 505.35ZM312.903 527.7L312.157 528.366L312.163 528.373L312.169 528.38L312.903 527.7ZM323.103 542.525C318.315 542.525 313.933 541.415 309.937 539.2L308.968 540.95C313.273 543.335 317.991 544.525 323.103 544.525V542.525ZM309.942 539.203C305.997 536.99 302.848 533.915 300.486 529.962L298.769 530.988C301.307 535.235 304.709 538.56 308.963 540.947L309.942 539.203ZM300.493 529.974C298.188 525.988 297.028 521.513 297.028 516.525H295.028C295.028 521.837 296.268 526.662 298.762 530.976L300.493 529.974ZM297.028 516.525C297.028 511.537 298.188 507.089 300.491 503.155L298.765 502.145C296.268 506.411 295.028 511.213 295.028 516.525H297.028ZM300.486 503.163C302.848 499.21 305.997 496.135 309.942 493.922L308.963 492.178C304.709 494.565 301.307 497.89 298.769 502.137L300.486 503.163ZM309.937 493.925C313.933 491.71 318.315 490.6 323.103 490.6V488.6C317.991 488.6 313.273 489.79 308.968 492.175L309.937 493.925ZM323.103 490.6C327.891 490.6 332.246 491.71 336.188 493.922L337.167 492.178C332.91 489.79 328.215 488.6 323.103 488.6V490.6ZM336.193 493.925C340.184 496.137 343.301 499.206 345.56 503.147L347.295 502.153C344.854 497.894 341.471 494.563 337.162 492.175L336.193 493.925ZM345.565 503.155C347.868 507.089 349.028 511.537 349.028 516.525H351.028C351.028 511.213 349.788 506.411 347.291 502.145L345.565 503.155ZM349.028 516.525C349.028 521.513 347.868 525.988 345.562 529.974L347.293 530.976C349.788 526.662 351.028 521.837 351.028 516.525H349.028ZM345.565 529.97C343.253 533.918 340.132 536.991 336.188 539.203L337.167 540.947C341.424 538.559 344.802 535.232 347.291 530.98L345.565 529.97ZM336.188 539.203C332.246 541.415 327.891 542.525 323.103 542.525V544.525C328.215 544.525 332.91 543.335 337.167 540.947L336.188 539.203ZM323.103 532.825C327.55 532.825 331.185 531.33 333.899 528.291L332.407 526.959C330.12 529.52 327.056 530.825 323.103 530.825V532.825ZM333.892 528.298C336.644 525.276 337.978 521.318 337.978 516.525H335.978C335.978 520.932 334.761 524.374 332.413 526.952L333.892 528.298ZM337.978 516.525C337.978 511.686 336.646 507.722 333.886 504.745L332.419 506.105C334.759 508.628 335.978 512.064 335.978 516.525H337.978ZM333.899 504.759C331.185 501.72 327.55 500.225 323.103 500.225V502.225C327.056 502.225 330.12 503.53 332.407 506.091L333.899 504.759ZM323.103 500.225C318.615 500.225 314.935 501.688 312.169 504.67L313.636 506.03C315.971 503.512 319.09 502.225 323.103 502.225V500.225ZM312.163 504.677C309.455 507.656 308.153 511.645 308.153 516.525H310.153C310.153 512.005 311.351 508.544 313.643 506.023L312.163 504.677ZM308.153 516.525C308.153 521.36 309.457 525.342 312.157 528.366L313.649 527.034C311.349 524.458 310.153 520.99 310.153 516.525H308.153ZM312.169 528.38C314.935 531.362 318.615 532.825 323.103 532.825V530.825C319.09 530.825 315.971 529.538 313.636 527.02L312.169 528.38ZM358.363 502.725L359.237 503.211L359.239 503.206L358.363 502.725ZM367.738 493.2L368.228 494.072L368.232 494.07L367.738 493.2ZM397.513 494.7L398.108 493.897L398.108 493.897L397.513 494.7ZM406.438 508.2V509.2H407.735L407.405 507.946L406.438 508.2ZM392.338 508.2L391.435 508.631L391.707 509.2H392.338V508.2ZM387.838 503.175L387.32 504.031L387.33 504.036L387.838 503.175ZM371.713 505.575L372.459 506.24L372.459 506.24L371.713 505.575ZM387.838 530.025L387.33 529.164L387.32 529.169L387.838 530.025ZM392.338 525V524H391.707L391.435 524.569L392.338 525ZM406.438 525L407.405 525.254L407.735 524H406.438V525ZM397.513 538.5L398.103 539.308L398.108 539.303L397.513 538.5ZM367.738 540L367.239 540.867L367.246 540.871L367.252 540.874L367.738 540ZM358.363 530.475L359.237 529.989L359.237 529.989L358.363 530.475ZM355.988 516.6C355.988 511.549 357.079 507.095 359.237 503.211L357.489 502.239C355.146 506.455 353.988 511.251 353.988 516.6H355.988ZM359.239 503.206C361.401 499.266 364.394 496.228 368.228 494.072L367.247 492.328C363.081 494.672 359.824 497.984 357.486 502.244L359.239 503.206ZM368.232 494.07C372.117 491.863 376.519 490.75 381.463 490.75V488.75C376.206 488.75 371.458 489.937 367.244 492.33L368.232 494.07ZM381.463 490.75C387.527 490.75 392.661 492.347 396.917 495.503L398.108 493.897C393.464 490.453 387.898 488.75 381.463 488.75V490.75ZM396.917 495.503C401.172 498.659 404.024 502.959 405.471 508.454L407.405 507.946C405.851 502.041 402.753 497.341 398.108 493.897L396.917 495.503ZM406.438 507.2H392.338V509.2H406.438V507.2ZM393.24 507.769C392.111 505.404 390.48 503.573 388.346 502.314L387.33 504.036C389.095 505.077 390.464 506.596 391.435 508.631L393.24 507.769ZM388.355 502.319C386.284 501.065 383.926 500.45 381.313 500.45V502.45C383.6 502.45 385.592 502.985 387.32 504.03L388.355 502.319ZM381.313 500.45C377.101 500.45 373.621 501.93 370.966 504.91L372.459 506.24C374.705 503.72 377.625 502.45 381.313 502.45V500.45ZM370.966 504.91C368.315 507.885 367.038 511.818 367.038 516.6H369.038C369.038 512.182 370.21 508.765 372.459 506.24L370.966 504.91ZM367.038 516.6C367.038 521.382 368.315 525.315 370.966 528.29L372.459 526.96C370.21 524.435 369.038 521.018 369.038 516.6H367.038ZM370.966 528.29C373.621 531.27 377.101 532.75 381.313 532.75V530.75C377.625 530.75 374.705 529.48 372.459 526.96L370.966 528.29ZM381.313 532.75C383.926 532.75 386.284 532.135 388.355 530.88L387.32 529.169C385.592 530.215 383.6 530.75 381.313 530.75V532.75ZM388.346 530.886C390.48 529.627 392.111 527.796 393.24 525.431L391.435 524.569C390.464 526.604 389.095 528.123 387.33 529.164L388.346 530.886ZM392.338 526H406.438V524H392.338V526ZM405.471 524.746C404.024 530.241 401.172 534.541 396.917 537.697L398.108 539.303C402.753 535.859 405.851 531.159 407.405 525.254L405.471 524.746ZM396.923 537.692C392.667 540.801 387.53 542.375 381.463 542.375V544.375C387.895 544.375 393.459 542.699 398.102 539.308L396.923 537.692ZM381.463 542.375C376.515 542.375 372.11 541.285 368.223 539.126L367.252 540.874C371.465 543.215 376.21 544.375 381.463 544.375V542.375ZM368.236 539.133C364.394 536.924 361.399 533.881 359.237 529.989L357.489 530.961C359.826 535.169 363.081 538.476 367.239 540.867L368.236 539.133ZM359.237 529.989C357.079 526.105 355.988 521.651 355.988 516.6H353.988C353.988 521.949 355.146 526.745 357.489 530.961L359.237 529.989ZM444.817 543L444.021 543.606L444.321 544H444.817V543ZM427.117 519.75L427.912 519.144L426.117 516.786V519.75H427.117ZM427.117 543V544H428.117V543H427.117ZM414.292 543H413.292V544H414.292V543ZM414.292 490.35V489.35H413.292V490.35H414.292ZM427.117 490.35H428.117V489.35H427.117V490.35ZM427.117 513.45H426.117V516.419L427.913 514.055L427.117 513.45ZM444.667 490.35V489.35H444.17L443.87 489.745L444.667 490.35ZM459.742 490.35L460.526 490.97L461.807 489.35H459.742V490.35ZM439.342 516.15L438.557 515.53L438.068 516.149L438.556 516.769L439.342 516.15ZM460.492 543V544H462.552L461.277 542.381L460.492 543ZM445.612 542.394L427.912 519.144L426.321 520.356L444.021 543.606L445.612 542.394ZM426.117 519.75V543H428.117V519.75H426.117ZM427.117 542H414.292V544H427.117V542ZM415.292 543V490.35H413.292V543H415.292ZM414.292 491.35H427.117V489.35H414.292V491.35ZM426.117 490.35V513.45H428.117V490.35H426.117ZM427.913 514.055L445.463 490.955L443.87 489.745L426.32 512.845L427.913 514.055ZM444.667 491.35H459.742V489.35H444.667V491.35ZM458.957 489.73L438.557 515.53L440.126 516.77L460.526 490.97L458.957 489.73ZM438.556 516.769L459.706 543.619L461.277 542.381L440.127 515.531L438.556 516.769ZM460.492 542H444.817V544H460.492V542Z" fill="black" mask="url(#path-10-outside-1_1074_3387)"/>
</svg>
