<svg width="41" height="43" viewBox="0 0 41 43" fill="none" xmlns="http://www.w3.org/2000/svg">
<path d="M20.14 39.1576C21.9861 39.1576 23.4966 37.5557 23.4966 35.5979H16.7833C16.7833 37.5557 18.2938 39.1576 20.14 39.1576ZM30.2099 28.4783V19.5788C30.2099 14.1145 27.4742 9.5402 22.6574 8.32988V7.11955C22.6574 5.64224 21.533 4.44971 20.14 4.44971C18.7469 4.44971 17.6225 5.64224 17.6225 7.11955V8.32988C12.8225 9.5402 10.07 14.0967 10.07 19.5788V28.4783L6.71338 32.0381V33.818H33.5665V32.0381L30.2099 28.4783ZM26.8532 30.2582H13.4267V19.5788C13.4267 15.1647 15.9609 11.5693 20.14 11.5693C24.319 11.5693 26.8532 15.1647 26.8532 19.5788V30.2582Z" fill="#777C88"/>
<ellipse cx="26.6522" cy="12.409" rx="3.65217" ry="4.25452" fill="#F02626"/>
</svg>
