<svg width="16" height="16" viewBox="0 0 16 16" fill="none" xmlns="http://www.w3.org/2000/svg">
<rect width="16" height="16" fill="white" fill-opacity="0.01"/>
<g clip-path="url(#clip0_1916_5295)">
<rect width="14" height="14" transform="translate(1 1)" fill="white" fill-opacity="0.01"/>
<g clip-path="url(#clip1_1916_5295)">
<path d="M11.2736 10.0504C12.1208 8.89427 12.5003 7.46084 12.3361 6.03692C12.1719 4.613 11.4761 3.30359 10.3879 2.37066C9.29967 1.43772 7.89935 0.95007 6.46705 1.00526C5.03475 1.06045 3.67611 1.65441 2.66293 2.66831C1.64975 3.68221 1.05676 5.04128 1.0026 6.47362C0.948437 7.90596 1.43709 9.30593 2.3708 10.3935C3.30451 11.481 4.61442 12.1759 6.03846 12.3391C7.4625 12.5023 8.89565 12.1218 10.0512 11.2737H10.0503C10.0766 11.3087 10.1046 11.3419 10.1361 11.3743L13.5048 14.743C13.6689 14.9072 13.8915 14.9995 14.1236 14.9996C14.3557 14.9997 14.5783 14.9075 14.7425 14.7435C14.9067 14.5794 14.999 14.3568 14.9991 14.1247C14.9991 13.8926 14.907 13.67 14.7429 13.5058L11.3742 10.137C11.3429 10.1054 11.3093 10.0761 11.2736 10.0495V10.0504ZM11.4993 6.68692C11.4993 7.3189 11.3748 7.9447 11.133 8.52858C10.8911 9.11246 10.5367 9.64299 10.0898 10.0899C9.64289 10.5367 9.11236 10.8912 8.52848 11.1331C7.94461 11.3749 7.31881 11.4994 6.68682 11.4994C6.05483 11.4994 5.42904 11.3749 4.84516 11.1331C4.26128 10.8912 3.73075 10.5367 3.28387 10.0899C2.83699 9.64299 2.4825 9.11246 2.24065 8.52858C1.9988 7.9447 1.87432 7.3189 1.87432 6.68692C1.87432 5.41056 2.38135 4.18648 3.28387 3.28397C4.18639 2.38145 5.41047 1.87442 6.68682 1.87442C7.96318 1.87442 9.18725 2.38145 10.0898 3.28397C10.9923 4.18648 11.4993 5.41056 11.4993 6.68692V6.68692Z" fill="white"/>
</g>
</g>
<defs>
<clipPath id="clip0_1916_5295">
<rect width="14" height="14" fill="white" transform="translate(1 1)"/>
</clipPath>
<clipPath id="clip1_1916_5295">
<rect width="14" height="14" fill="white" transform="translate(1 1)"/>
</clipPath>
</defs>
</svg>
