<svg width="23" height="19" viewBox="0 0 23 19" fill="none" xmlns="http://www.w3.org/2000/svg">
<path d="M22.9117 2.51049C22.0942 2.88358 21.223 3.13088 20.3148 3.25095C21.2491 2.67059 21.9623 1.75859 22.2975 0.659336C21.4264 1.19967 20.4646 1.58134 19.4395 1.79433C18.6123 0.878044 17.4334 0.310547 16.1473 0.310547C13.652 0.310547 11.6432 2.41757 11.6432 5.00061C11.6432 5.37227 11.6734 5.72964 11.7476 6.06985C8.00059 5.87973 4.68502 4.01143 2.45769 1.16537C2.06883 1.86723 1.84074 2.67059 1.84074 3.53541C1.84074 5.15928 2.64456 6.59875 3.84273 7.43213C3.1186 7.41784 2.40822 7.19913 1.80639 6.85463C1.80639 6.86892 1.80639 6.88751 1.80639 6.90609C1.80639 9.18465 3.36868 11.0773 5.41738 11.5132C5.05051 11.6176 4.65066 11.6676 4.2357 11.6676C3.94715 11.6676 3.65586 11.6505 3.38242 11.5876C3.96639 13.4445 5.62349 14.8096 7.59387 14.8539C6.06043 16.1018 4.11341 16.8537 2.00563 16.8537C1.63601 16.8537 1.28151 16.8366 0.927002 16.7894C2.92349 18.1288 5.2896 18.8936 7.8412 18.8936C16.1349 18.8936 20.6693 11.7462 20.6693 5.55096C20.6693 5.34369 20.6624 5.14356 20.6528 4.94487C21.5473 4.28445 22.2989 3.45965 22.9117 2.51049Z" fill="black"/>
</svg>
