<svg width="39" height="45" viewBox="0 0 39 45" fill="none" xmlns="http://www.w3.org/2000/svg">
<path d="M15.9439 25.8225V11.0668C15.9439 9.34796 15.9439 8.48855 15.7011 7.81063C15.3775 6.90673 14.7567 6.18859 13.9754 5.81419C13.3894 5.53339 12.6465 5.53339 11.1607 5.53339C9.67486 5.53339 8.93196 5.53339 8.34595 5.81419C7.5646 6.18859 6.94382 6.90673 6.62018 7.81063C6.37744 8.48855 6.37744 9.34796 6.37744 11.0668V25.8225C6.37744 27.5414 6.37744 28.4008 6.62018 29.0787C6.94382 29.9826 7.5646 30.7007 8.34595 31.0751C8.93196 31.3559 9.67486 31.3559 11.1607 31.3559C12.6465 31.3559 13.3894 31.3559 13.9754 31.0751C14.7567 30.7007 15.3775 29.9826 15.7011 29.0787C15.9439 28.4008 15.9439 27.5414 15.9439 25.8225Z" stroke="#777C88" stroke-width="3" stroke-linecap="round" stroke-linejoin="round"/>
<path d="M15.9439 25.8225V11.0668C15.9439 9.34796 15.9439 8.48855 15.7011 7.81063C15.3775 6.90673 14.7567 6.18859 13.9754 5.81419C13.3894 5.53339 12.6465 5.53339 11.1607 5.53339C9.67486 5.53339 8.93196 5.53339 8.34595 5.81419C7.5646 6.18859 6.94382 6.90673 6.62018 7.81063C6.37744 8.48855 6.37744 9.34796 6.37744 11.0668V25.8225C6.37744 27.5414 6.37744 28.4008 6.62018 29.0787C6.94382 29.9826 7.5646 30.7007 8.34595 31.0751C8.93196 31.3559 9.67486 31.3559 11.1607 31.3559C12.6465 31.3559 13.3894 31.3559 13.9754 31.0751C14.7567 30.7007 15.3775 29.9826 15.7011 29.0787C15.9439 28.4008 15.9439 27.5414 15.9439 25.8225Z" stroke="#777C88" stroke-width="3" stroke-linecap="round" stroke-linejoin="round"/>
<path d="M31.8882 25.8225V18.4447C31.8882 16.7258 31.8882 15.8664 31.6455 15.1885C31.3218 14.2846 30.7011 13.5665 29.9197 13.1921C29.3337 12.9113 28.5908 12.9113 27.105 12.9113C25.6192 12.9113 24.8763 12.9113 24.2903 13.1921C23.5089 13.5665 22.8882 14.2846 22.5645 15.1885C22.3218 15.8664 22.3218 16.7258 22.3218 18.4447V25.8225C22.3218 27.5414 22.3218 28.4008 22.5645 29.0787C22.8882 29.9826 23.5089 30.7007 24.2903 31.0751C24.8763 31.3559 25.6192 31.3559 27.105 31.3559C28.5908 31.3559 29.3337 31.3559 29.9197 31.0751C30.7011 30.7007 31.3218 29.9826 31.6455 29.0787C31.8882 28.4008 31.8882 27.5414 31.8882 25.8225Z" stroke="#777C88" stroke-width="3" stroke-linecap="round" stroke-linejoin="round"/>
<path d="M31.8882 25.8225V18.4447C31.8882 16.7258 31.8882 15.8664 31.6455 15.1885C31.3218 14.2846 30.7011 13.5665 29.9197 13.1921C29.3337 12.9113 28.5908 12.9113 27.105 12.9113C25.6192 12.9113 24.8763 12.9113 24.2903 13.1921C23.5089 13.5665 22.8882 14.2846 22.5645 15.1885C22.3218 15.8664 22.3218 16.7258 22.3218 18.4447V25.8225C22.3218 27.5414 22.3218 28.4008 22.5645 29.0787C22.8882 29.9826 23.5089 30.7007 24.2903 31.0751C24.8763 31.3559 25.6192 31.3559 27.105 31.3559C28.5908 31.3559 29.3337 31.3559 29.9197 31.0751C30.7011 30.7007 31.3218 29.9826 31.6455 29.0787C31.8882 28.4008 31.8882 27.5414 31.8882 25.8225Z" stroke="#777C88" stroke-width="3" stroke-linecap="round" stroke-linejoin="round"/>
<path d="M33.4825 38.7338H4.7832" stroke="#777C88" stroke-width="3" stroke-linecap="round" stroke-linejoin="round"/>
</svg>
