<svg width="28" height="31" viewBox="0 0 28 31" fill="none" xmlns="http://www.w3.org/2000/svg">
<path d="M13.9998 4.35803C15.8332 4.35803 17.3332 6.06174 17.3332 8.14405C17.3332 10.2264 15.8332 11.9301 13.9998 11.9301C12.1665 11.9301 10.6665 10.2264 10.6665 8.14405C10.6665 6.06174 12.1665 4.35803 13.9998 4.35803ZM13.9998 23.2881C18.4998 23.2881 23.6665 25.7301 23.9998 27.0741H3.99984C4.38317 25.7111 9.5165 23.2881 13.9998 23.2881ZM13.9998 0.572021C10.3165 0.572021 7.33317 3.9605 7.33317 8.14405C7.33317 12.3276 10.3165 15.7161 13.9998 15.7161C17.6832 15.7161 20.6665 12.3276 20.6665 8.14405C20.6665 3.9605 17.6832 0.572021 13.9998 0.572021ZM13.9998 19.5021C9.54984 19.5021 0.666504 22.0387 0.666504 27.0741V30.8601H27.3332V27.0741C27.3332 22.0387 18.4498 19.5021 13.9998 19.5021Z" fill="#777C88"/>
</svg>
