<svg width="27" height="31" viewBox="0 0 27 31" fill="none" xmlns="http://www.w3.org/2000/svg">
<path d="M13.4266 30.6139C15.2727 30.6139 16.7832 29.2388 16.7832 27.5581H10.0699C10.0699 29.2388 11.5804 30.6139 13.4266 30.6139ZM23.4965 21.4465V13.807C23.4965 9.11633 20.7608 5.18962 15.9441 4.15065V3.11168C15.9441 1.84352 14.8196 0.819824 13.4266 0.819824C12.0336 0.819824 10.9091 1.84352 10.9091 3.11168V4.15065C6.10909 5.18962 3.35664 9.10105 3.35664 13.807V21.4465L0 24.5023V26.0302H26.8531V24.5023L23.4965 21.4465ZM20.1399 22.9744H6.71329V13.807C6.71329 10.0178 9.24755 6.93143 13.4266 6.93143C17.6056 6.93143 20.1399 10.0178 20.1399 13.807V22.9744Z" fill="#777C88"/>
<circle cx="19.9388" cy="7.65217" r="3.65217" fill="#F02626"/>
</svg>
